<?xml version="1.0" standalone="no"?>
<!DOCTYPE svg PUBLIC "-//W3C//DTD SVG 20010904//EN"
 "http://www.w3.org/TR/2001/REC-SVG-20010904/DTD/svg10.dtd">
<svg version="1.0" xmlns="http://www.w3.org/2000/svg"
 width="640.000000pt" height="640.000000pt" viewBox="0 0 640.000000 640.000000"
 preserveAspectRatio="xMidYMid meet">
<metadata>
Created by potrace 1.11, written by Peter Selinger 2001-2013
</metadata>
<g transform="translate(0.000000,640.000000) scale(0.100000,-0.100000)"
fill="#000000" stroke="none">
<path d="M2337 6375 c-23 -32 -7 -32 23 0 16 17 19 25 9 25 -8 0 -22 -12 -32
-25z"/>
<path d="M3250 6380 c-219 -74 -526 -213 -685 -310 -36 -22 -69 -40 -73 -40
-5 0 -21 14 -37 30 -16 17 -34 29 -40 27 -5 -2 -22 4 -36 14 -33 23 -115 59
-135 59 -8 0 -14 -5 -14 -11 0 -5 4 -8 10 -4 5 3 25 -1 44 -9 25 -10 40 -26
51 -52 8 -20 13 -39 11 -41 -2 -3 -10 11 -17 30 -15 41 -49 53 -91 31 -34 -18
-59 -19 -38 -1 15 12 25 37 15 37 -24 0 -107 -210 -119 -303 -17 -123 -17
-127 8 -127 28 0 51 -24 42 -45 -8 -21 -38 -19 -63 5 -22 19 -22 19 -28 0 -3
-11 -26 -48 -50 -83 l-43 -63 24 -23 c28 -27 29 -34 8 -55 -19 -19 -33 -20
-56 -2 -23 17 -23 34 -1 58 16 18 16 18 -1 12 -9 -4 -20 -18 -23 -33 -4 -20
-34 -45 -124 -105 -157 -104 -276 -225 -294 -299 -5 -20 -1 -29 27 -50 29 -22
210 -87 241 -87 7 0 27 -9 44 -20 l33 -20 -19 -37 c-18 -37 -74 -175 -113
-283 -11 -30 -25 -66 -31 -80 -6 -14 -14 -34 -17 -45 -4 -14 -15 -20 -35 -20
-23 0 -33 -7 -44 -30 -21 -45 -52 -75 -78 -75 -17 0 -23 6 -23 23 -1 12 -7 33
-15 47 -8 14 -14 35 -15 47 0 14 -10 28 -28 37 -15 8 -35 23 -45 34 -11 12
-26 18 -42 14 -32 -6 -73 21 -81 53 -4 16 -15 26 -35 30 -32 7 -54 38 -45 61
3 9 -5 25 -22 39 -25 21 -26 26 -15 54 13 36 11 37 -22 15 -23 -15 -27 -15
-53 2 -15 10 -41 17 -59 15 -24 -2 -39 4 -57 23 -14 16 -30 24 -39 20 -20 -7
-67 37 -67 63 0 10 -14 24 -33 33 -26 12 -32 21 -32 46 0 17 -8 39 -19 49 -13
13 -17 27 -13 52 5 31 -5 44 -18 23 -10 -16 -39 -12 -61 9 -15 14 -25 16 -38
9 -21 -12 -61 12 -71 42 -4 14 -15 20 -34 20 -34 0 -61 28 -61 61 0 18 -8 28
-30 36 -28 11 -30 15 -28 57 1 45 4 48 82 114 45 37 101 82 126 99 25 17 54
40 64 52 11 11 23 21 29 21 5 0 31 18 57 40 26 22 50 37 54 33 3 -3 6 -2 6 4
0 6 27 27 60 48 33 21 60 40 60 42 0 15 -242 -151 -360 -247 -41 -34 -97 -79
-125 -101 -62 -50 -309 -292 -343 -337 l-25 -33 39 -40 c142 -146 360 -289
574 -377 182 -74 193 -78 160 -58 l-25 15 27 1 c45 0 57 -10 95 -79 42 -74 48
-80 156 -157 42 -31 77 -59 77 -62 0 -4 -14 -43 -31 -86 -17 -43 -28 -87 -26
-97 3 -10 -2 -27 -10 -38 -19 -28 -5 -27 19 1 13 15 17 30 13 46 -3 14 -2 21
4 18 5 -4 20 26 33 66 13 39 28 73 33 75 6 1 20 -5 32 -15 21 -17 21 -19 8
-92 -8 -41 -14 -93 -14 -115 0 -38 1 -38 11 -15 6 14 14 48 18 75 l7 50 2 -52
c1 -55 3 -57 50 -53 19 1 22 -2 17 -16 -4 -10 -9 -99 -12 -198 -3 -100 -7
-196 -9 -214 -2 -20 0 -30 6 -26 12 7 71 130 123 254 43 103 47 95 7 -15 -34
-94 -49 -131 -89 -216 -16 -35 -35 -86 -40 -114 -6 -27 -18 -77 -27 -110 -9
-33 -17 -66 -17 -72 -1 -7 -5 -13 -9 -13 -4 0 -9 -15 -12 -32 -3 -18 -19 -80
-37 -136 -22 -70 -29 -107 -22 -114 7 -7 14 3 22 29 38 121 84 234 90 222 13
-25 24 -269 25 -574 1 -290 7 -369 40 -547 21 -112 81 -299 111 -345 17 -26
18 -53 3 -53 -46 0 -133 122 -188 265 -32 81 -24 33 9 -57 17 -46 47 -109 66
-142 29 -46 34 -60 23 -67 -17 -10 -52 -2 -99 23 -45 24 -50 23 -50 -7 0 -22
59 -101 95 -127 20 -15 -6 -8 -31 8 -13 9 -27 14 -30 12 -9 -9 74 -110 123
-150 80 -66 82 -87 9 -108 -33 -9 -46 -18 -46 -30 0 -21 60 -83 112 -116 20
-13 39 -27 42 -33 3 -5 15 -52 25 -103 11 -52 21 -101 23 -109 2 -11 -18 -14
-114 -14 -64 0 -120 -3 -124 -8 -4 -4 1 -14 12 -21 30 -23 93 -37 171 -39 79
-2 76 0 89 -82 2 -11 8 -39 14 -63 13 -53 7 -64 -26 -52 -37 15 -147 12 -168
-3 -29 -21 -16 -50 29 -65 32 -11 52 -11 101 -1 34 7 69 9 77 6 9 -3 32 -37
51 -74 43 -85 97 -176 118 -197 9 -9 25 -26 35 -38 45 -56 170 -93 279 -84
114 9 384 85 384 107 0 8 -103 -12 -206 -38 -100 -26 -218 -29 -290 -7 -87 27
-184 94 -184 127 0 26 -11 47 -25 47 -16 0 -26 92 -12 101 6 4 7 18 3 30 -4
13 -18 65 -31 114 -93 351 -143 519 -221 752 -30 89 -54 169 -54 177 0 23 53
20 75 -4 9 -10 20 -19 24 -18 29 3 47 -29 81 -152 10 -36 26 -90 35 -120 34
-115 90 -319 111 -405 8 -33 23 -85 33 -115 11 -30 29 -90 42 -132 13 -43 29
-80 36 -82 7 -3 13 -1 13 4 0 6 7 10 16 10 18 0 77 31 82 43 2 4 8 7 13 7 9 0
55 39 113 95 20 19 20 20 2 23 -14 3 -7 9 24 23 41 18 42 20 24 34 -17 13 -17
14 -1 15 9 0 17 4 17 8 0 4 23 16 50 26 28 10 54 25 59 33 7 13 14 13 42 5
119 -38 129 -40 140 -26 23 28 38 21 238 -108 25 -15 48 -28 52 -28 8 0 62
160 56 166 -2 2 -14 -26 -26 -61 -21 -60 -41 -91 -41 -66 0 6 -8 11 -17 12
-10 0 -40 13 -68 30 -27 16 -59 33 -70 38 -32 15 -178 136 -245 202 -55 55
-150 171 -150 182 0 3 -15 27 -33 53 -52 79 -120 221 -114 238 5 12 20 16 54
16 88 0 313 40 410 72 53 17 119 47 147 66 28 19 52 29 54 23 2 -6 9 -11 15
-11 6 0 23 -15 39 -33 28 -32 28 -32 16 -4 -10 23 -9 30 3 38 10 6 11 9 1 9
-7 0 -10 5 -7 10 3 6 3 20 -1 32 -6 21 -7 21 -22 2 -14 -18 -14 -18 -9 5 3 14
-1 34 -10 48 -11 16 -13 27 -6 34 6 6 7 29 2 57 -4 26 -5 49 -3 51 4 5 25 -49
27 -70 1 -10 7 -15 14 -12 8 3 21 -2 31 -10 18 -17 160 -67 188 -67 10 0 56
19 103 42 69 34 81 43 61 45 -52 7 -175 35 -185 43 -5 5 -31 11 -58 15 -26 4
-50 11 -53 16 -3 5 -27 20 -53 34 -27 13 -51 30 -54 38 -3 8 -9 52 -12 98 -4
46 -9 95 -10 109 -2 20 -19 35 -82 71 -109 63 -199 125 -250 172 -25 23 -47
36 -54 31 -8 -4 -9 -3 -5 4 4 6 -14 39 -39 72 -40 56 -73 118 -160 303 -14 31
-33 64 -41 72 -9 8 -11 15 -5 15 6 0 15 9 21 19 9 18 8 19 -20 5 -26 -13 -33
-13 -62 2 -18 9 -41 23 -51 32 -16 15 -17 14 -11 -1 5 -13 2 -16 -10 -11 -9 3
-16 11 -16 17 0 6 -3 8 -6 4 -9 -8 35 -77 49 -77 7 0 4 -5 -6 -11 -13 -8 -26
-8 -45 0 -41 17 -156 30 -202 24 l-42 -6 4 57 c4 46 1 59 -12 66 -18 10 -78
126 -86 170 -8 35 13 196 29 230 11 23 17 25 63 22 42 -3 52 0 58 14 5 12 1
23 -11 32 -17 13 -16 13 6 7 16 -5 21 -4 17 4 -4 6 -3 11 1 11 14 0 31 -34 29
-60 -1 -22 -11 -28 -81 -52 -87 -29 -84 -37 5 -13 30 8 60 15 66 15 13 0 36
-48 29 -59 -2 -5 1 -28 9 -52 l13 -44 7 33 c5 19 3 54 -4 82 -6 27 -9 54 -5
60 6 10 66 40 109 54 13 4 35 -6 70 -32 79 -61 87 -59 52 10 l-31 60 53 49
c29 27 62 49 73 49 16 0 19 7 19 50 0 28 -1 50 -2 50 -2 0 -27 -9 -57 -20 -29
-12 -56 -18 -59 -15 -4 3 10 22 31 41 20 19 37 38 37 42 0 3 -15 -9 -33 -26
-18 -18 -36 -30 -39 -27 -3 4 -28 -17 -54 -45 -57 -60 -108 -92 -189 -120 -86
-30 -96 -24 -30 16 33 19 76 52 95 72 38 39 24 31 -61 -34 -88 -68 -93 -67
-114 21 -13 56 -16 101 -13 175 5 104 5 104 -39 100 -46 -3 -48 15 -3 20 43 5
45 7 43 35 -1 16 4 36 11 45 8 8 17 25 20 37 7 20 5 21 -24 10 -16 -6 -30 -15
-30 -19 0 -4 -25 -8 -55 -8 -61 0 -63 3 -39 58 9 21 22 52 30 70 8 18 14 39
14 47 0 8 4 15 8 15 4 0 16 26 26 58 19 60 23 68 80 197 37 85 83 175 95 188
4 4 15 5 24 1 20 -7 20 -7 -29 -177 -36 -125 -40 -147 -25 -131 5 5 21 50 36
99 33 112 56 175 64 175 3 0 23 -5 43 -11 l38 -10 -19 -27 c-48 -71 -119 -190
-129 -221 -20 -56 -15 -134 9 -165 17 -22 24 -25 31 -14 6 8 7 0 2 -22 -3 -19
-11 -41 -18 -49 -9 -12 -8 -13 2 -7 11 7 13 -3 8 -50 l-6 -59 24 85 c45 165
67 225 96 267 17 23 30 51 30 63 0 12 4 19 9 16 5 -3 17 11 26 32 10 20 24 49
31 64 13 25 13 27 -3 21 -13 -5 -15 -2 -10 11 4 10 7 20 7 22 0 2 11 4 25 4
17 0 29 9 39 28 21 41 47 213 45 300 -2 76 -1 78 51 166 40 69 50 96 45 115
-12 49 -9 76 13 111 14 23 22 29 22 18 0 -10 5 -18 10 -18 6 0 10 5 10 11 0 5
5 7 11 4 7 -5 4 -14 -7 -26 -9 -10 -14 -19 -10 -19 4 0 19 13 32 30 14 16 44
39 67 50 23 10 75 37 115 59 61 34 102 44 102 24 0 -2 -24 -34 -53 -71 -61
-76 -61 -76 -155 -269 -72 -147 -95 -207 -136 -365 -35 -130 -48 -177 -91
-306 -20 -63 -34 -116 -32 -118 9 -9 66 144 96 256 56 211 136 424 211 561 65
118 168 272 214 322 41 44 44 51 16 44 -11 -3 -20 -4 -20 -2 0 1 17 20 38 41
20 22 54 59 75 82 35 38 42 42 70 37 79 -16 80 -18 43 -98 -13 -29 -29 -70
-36 -92 -35 -114 -87 -226 -130 -284 -43 -58 -187 -307 -203 -353 -4 -10 -10
-18 -15 -18 -5 0 -16 -17 -25 -37 -14 -34 -82 -267 -93 -318 l-5 -20 10 20 c6
11 27 65 47 120 20 55 57 145 83 200 51 111 153 306 158 301 1 -1 -4 -34 -12
-72 -16 -74 -21 -187 -5 -129 4 17 13 57 20 90 27 137 55 225 70 225 8 0 6
-19 -16 -130 -8 -41 -22 -113 -30 -160 -8 -47 -17 -98 -20 -115 -6 -35 -14
-51 86 160 62 130 130 227 129 183 -1 -55 -16 -99 -44 -130 -25 -28 -54 -69
-89 -125 -4 -7 -5 -13 -3 -13 3 0 18 20 34 45 15 25 31 45 35 45 4 0 19 17 33
37 30 45 33 28 5 -27 -26 -52 -20 -51 15 2 25 37 29 40 35 23 4 -11 10 24 14
80 20 299 24 380 19 483 -5 94 -4 112 8 108 18 -7 83 26 78 39 -2 6 -7 9 -11
8 -4 -2 -5 3 -2 11 4 11 -5 13 -41 8 -49 -5 -65 4 -65 41 0 22 10 33 73 76 44
30 51 32 78 21 24 -10 33 -10 56 5 25 17 27 17 40 -1 8 -11 26 -33 41 -51 14
-18 30 -43 34 -55 8 -23 8 -23 -8 -3 l-17 20 8 -20 c4 -11 14 -41 22 -68 9
-26 18 -45 21 -43 2 3 -1 21 -8 41 -7 20 -10 39 -7 41 3 3 8 -8 12 -25 6 -28
35 -64 35 -43 0 24 -37 119 -77 195 -13 26 -22 47 -19 47 3 0 22 -9 43 -21 47
-26 91 -66 98 -91 4 -9 12 -17 18 -15 7 1 11 -4 9 -11 -1 -8 2 -11 8 -7 7 4
23 -4 38 -16 l26 -24 -20 31 c-37 60 -104 129 -158 164 -60 38 -67 49 -36 57
11 3 20 9 20 13 0 4 14 13 31 21 25 10 41 10 78 0 69 -18 186 -76 239 -117 45
-35 44 -34 -8 15 -66 62 -156 117 -205 127 -44 8 -44 16 -1 37 32 15 133 87
123 87 -3 0 -56 -16 -119 -36 -159 -50 -351 -109 -433 -132 -38 -11 -126 -37
-195 -57 -69 -20 -147 -43 -175 -50 -27 -8 -65 -19 -82 -24 -21 -6 -35 -6 -39
0 -3 5 -2 9 3 8 4 -2 21 4 36 11 20 10 24 16 15 22 -9 6 -7 8 7 7 34 -2 41 1
25 12 -13 9 -12 10 3 5 17 -5 75 17 87 33 3 4 30 17 60 30 30 13 116 54 190
91 74 37 173 82 220 101 143 56 175 81 50 39z m-544 -265 c-11 -8 -25 -15 -30
-15 -6 1 0 7 14 15 32 19 40 18 16 0z m284 -199 c0 -3 -4 -8 -10 -11 -5 -3
-10 -1 -10 4 0 6 5 11 10 11 6 0 10 -2 10 -4z m-660 -50 c0 -2 -9 -6 -20 -9
-11 -3 -18 -1 -14 4 5 9 34 13 34 5z m680 -331 c-5 -110 -5 -110 -45 -160 -22
-28 -51 -73 -65 -100 -14 -28 -27 -52 -31 -55 -3 -3 -13 -27 -23 -53 -10 -27
-20 -47 -21 -45 -4 4 22 106 32 128 4 8 8 20 8 25 4 27 18 73 31 105 8 19 16
52 19 72 2 20 12 51 22 69 43 76 52 96 59 129 13 63 20 2 14 -115z m-789 119
c11 -14 10 -18 -6 -30 -23 -17 -27 -17 -50 0 -24 17 -13 46 18 46 14 0 31 -7
38 -16z m499 -24 c0 -5 -4 -10 -9 -10 -6 0 -13 5 -16 10 -3 6 1 10 9 10 9 0
16 -4 16 -10z m-431 -26 c11 -14 25 -23 30 -20 11 7 41 -20 41 -39 0 -25 -29
-24 -49 1 -11 14 -26 24 -33 21 -20 -7 -48 12 -48 32 0 39 30 42 59 5z m-225
-153 c27 -29 17 -55 -22 -59 -31 -3 -32 -2 -32 32 0 30 8 42 31 45 3 1 14 -8
23 -18z m76 -50 c14 -28 13 -34 -11 -49 -23 -14 -59 -7 -59 11 0 20 30 57 45
57 8 0 19 -9 25 -19z m74 -37 c20 -19 20 -23 -1 -46 -35 -39 -77 -11 -55 38
13 28 34 31 56 8z m-678 -301 c-5 -12 -10 -13 -18 -5 -8 8 -8 15 3 28 15 18
25 4 15 -23z m36 -33 c6 0 9 -2 6 -5 -12 -12 -37 7 -30 23 6 16 7 15 10 0 2
-10 8 -18 14 -18z m428 -110 c6 -11 8 -20 6 -20 -3 0 -10 9 -16 20 -6 11 -8
20 -6 20 3 0 10 -9 16 -20z m35 -40 c3 -5 1 -10 -4 -10 -6 0 -11 5 -11 10 0 6
2 10 4 10 3 0 8 -4 11 -10z m-397 -767 c11 -11 9 -13 -11 -13 -16 0 -26 7 -30
19 -4 15 -1 18 12 13 9 -3 22 -12 29 -19z m68 -144 c-3 -17 -7 -55 -7 -83 l-2
-51 -8 65 c-9 68 -5 100 13 100 6 0 8 -12 4 -31z m-146 -92 c0 -7 16 -37 36
-66 20 -30 38 -66 39 -81 1 -15 5 -32 9 -39 10 -16 -2 -385 -14 -436 -14 -61
-25 -472 -13 -487 6 -7 14 -53 18 -103 24 -322 114 -738 191 -886 11 -22 12
-29 2 -29 -25 1 -259 38 -261 41 -51 72 -111 241 -143 399 -51 253 -62 448
-40 705 16 176 62 537 86 665 22 121 61 316 65 328 6 15 25 7 25 -11z m-94
-218 c-14 -74 -36 -215 -51 -313 -38 -261 -40 -268 -50 -172 -16 160 -3 253
61 448 32 98 60 176 61 174 2 -2 -7 -64 -21 -137z m489 71 c-53 -54 -54 -65
-1 -25 35 27 46 30 46 16 0 -12 -89 -71 -107 -71 -8 0 -13 12 -13 29 0 25 9
35 57 65 32 20 60 36 62 36 3 0 -17 -22 -44 -50z m-170 -70 c-3 -5 -12 -10
-18 -10 -7 0 -6 4 3 10 19 12 23 12 15 0z m-54 -617 c-9 -16 -10 -15 -11 8 0
14 3 29 8 33 12 12 14 -22 3 -41z m68 -73 c18 -33 19 -90 2 -90 -13 0 -32 45
-35 81 -2 19 -5 39 -6 44 -10 42 6 27 39 -35z m341 -41 c0 -10 6 -19 13 -19
14 0 51 -39 44 -47 -3 -2 -15 1 -28 7 -21 12 -22 11 -16 -24 4 -26 2 -36 -7
-36 -9 0 -12 -9 -8 -25 5 -27 -7 -32 -38 -15 -15 8 -17 16 -10 42 19 78 20 96
2 102 -9 3 -24 9 -32 12 -8 4 -4 -5 10 -20 l24 -27 -24 9 c-14 5 -26 18 -28
29 -2 16 5 22 40 30 50 11 58 9 58 -18z m-329 -108 l23 -18 -24 -8 c-17 -5
-27 -3 -36 10 -26 35 0 46 37 16z m247 -10 c3 -8 -1 -12 -9 -9 -7 2 -15 10
-17 17 -3 8 1 12 9 9 7 -2 15 -10 17 -17z m-138 -84 c0 -4 5 -5 12 -1 6 4 8 3
5 -3 -4 -6 2 -18 13 -28 11 -10 20 -29 20 -42 0 -24 -1 -24 -34 9 -23 22 -36
46 -40 73 -6 37 -5 39 9 21 8 -11 15 -24 15 -29z m-70 -26 c38 -34 43 -41 31
-55 -19 -23 -29 -20 -67 17 -32 30 -42 56 -27 70 11 12 17 8 63 -32z m280 -1
c0 -5 -4 -10 -10 -10 -5 0 -10 5 -10 10 0 6 5 10 10 10 6 0 10 -4 10 -10z m15
-79 c3 -10 3 -26 -1 -35 -9 -23 -34 -1 -34 30 0 29 26 33 35 5z m197 -5 c4 -6
18 -11 30 -11 17 0 24 -6 26 -26 2 -16 12 -31 28 -38 23 -10 24 -12 9 -35 -13
-19 -14 -29 -5 -46 9 -16 8 -24 -5 -36 -24 -24 -16 -34 54 -71 1 -1 0 -7 -5
-14 -5 -9 -10 -9 -18 2 -10 14 -21 15 -69 11 -10 -1 -22 -13 -27 -27 -7 -18
-17 -25 -35 -25 -31 0 -35 34 -5 50 11 6 20 18 20 27 0 11 6 14 23 10 21 -6
21 -6 3 8 -17 13 -17 15 -3 15 13 0 15 6 11 30 -4 19 -2 30 5 30 7 0 6 8 -4
24 -11 16 -13 26 -6 31 7 4 7 10 -2 19 -6 8 -16 11 -21 8 -5 -3 -6 2 -3 12 6
15 2 16 -28 10 -23 -4 -35 -2 -35 5 0 6 -4 11 -10 11 -5 0 -10 -7 -10 -15 0
-9 -9 -15 -25 -15 -16 0 -25 -6 -25 -15 0 -9 -12 -20 -26 -25 -15 -6 -22 -14
-18 -21 4 -7 -1 -18 -11 -25 -23 -17 -55 -1 -55 26 0 14 -7 20 -22 20 -17 0
-19 3 -10 9 11 6 10 10 -5 15 -10 4 -18 6 -18 4 0 -2 -11 7 -24 19 -25 23 -21
43 10 43 21 0 26 -16 7 -23 -10 -4 -9 -8 2 -16 9 -6 16 -7 18 -1 7 20 43 10
54 -15 6 -14 14 -25 18 -25 13 0 28 23 23 35 -2 7 5 16 17 20 12 4 30 15 41
26 14 14 24 17 43 9 18 -6 26 -5 30 5 5 15 46 9 58 -9z m-369 -35 c4 -17 2
-18 -13 -8 -10 6 -16 15 -14 19 9 14 22 9 27 -11z m-73 -30 c0 -5 -7 -11 -15
-15 -9 -3 -15 0 -15 9 0 8 7 15 15 15 8 0 15 -4 15 -9z m100 -41 c0 -5 -4 -10
-10 -10 -5 0 -10 5 -10 10 0 6 5 10 10 10 6 0 10 -4 10 -10z m-216 -138 c28
-115 142 -272 232 -322 51 -27 56 -47 11 -42 -39 5 -96 40 -132 82 -16 19 -38
42 -47 52 -10 10 -15 18 -11 18 3 0 -3 10 -14 23 -11 12 -25 31 -31 42 -15 30
-49 171 -55 228 l-5 49 17 -29 c9 -15 25 -61 35 -101z m245 112 c39 -8 39 -18
0 -35 -28 -11 -33 -10 -45 6 -26 35 -17 41 45 29z m531 -75 c0 -5 -9 -9 -20
-9 -11 0 -20 6 -20 14 0 9 7 12 20 9 11 -3 20 -9 20 -14z m-330 -79 c0 -23 -4
-24 -31 -10 -27 15 -24 30 6 30 18 0 25 -5 25 -20z m205 0 c3 -5 -1 -10 -10
-10 -9 0 -13 5 -10 10 3 6 8 10 10 10 2 0 7 -4 10 -10z m-449 -41 c3 -6 1 -16
-4 -21 -13 -13 -45 8 -36 23 7 12 31 11 40 -2z m486 -23 c8 -7 28 -21 46 -30
34 -17 40 -37 19 -54 -9 -8 -21 -7 -41 3 -16 8 -34 15 -40 15 -15 0 -46 36
-46 53 0 29 38 37 62 13z m248 -6 c0 -5 -5 -10 -11 -10 -5 0 -7 5 -4 10 3 6 8
10 11 10 2 0 4 -4 4 -10z m-536 -37 c4 -9 2 -21 -3 -26 -15 -15 -46 -3 -49 21
-3 18 1 22 21 22 14 0 28 -7 31 -17z m143 -55 c-3 -8 -6 -5 -6 6 -1 11 2 17 5
13 3 -3 4 -12 1 -19z m-511 -134 c-4 -9 -9 -15 -11 -12 -3 3 -3 13 1 22 4 9 9
15 11 12 3 -3 3 -13 -1 -22z m5 -57 c-10 -9 -11 -8 -5 6 3 10 9 15 12 12 3 -3
0 -11 -7 -18z m85 -26 c50 -50 97 -71 161 -71 30 0 33 -4 43 -42 6 -24 13 -48
14 -54 4 -9 -112 -41 -118 -32 -1 2 -19 24 -39 49 -20 25 -37 51 -37 58 0 7
-5 9 -12 5 -8 -5 -9 -2 -4 11 4 10 3 21 -1 24 -4 3 -16 23 -25 44 -17 35 -38
50 -38 25 0 -6 -2 -9 -5 -6 -5 5 4 38 10 38 1 0 25 -22 51 -49z m166 26 c13
-21 -2 -25 -44 -10 -66 22 -72 36 -13 27 28 -4 53 -12 57 -17z m125 1 c-3 -8
-6 -5 -6 6 -1 11 2 17 5 13 3 -3 4 -12 1 -19z m93 -33 c0 -40 -4 -55 -14 -55
-16 0 -26 30 -26 78 0 25 4 32 20 32 18 0 20 -7 20 -55z m541 -92 c-12 -20
-14 -14 -5 12 4 9 9 14 11 11 3 -2 0 -13 -6 -23z m-406 -803 c3 -5 1 -10 -4
-10 -6 0 -11 5 -11 10 0 6 2 10 4 10 3 0 8 -4 11 -10z"/>
<path d="M2906 5365 c-3 -8 -1 -15 4 -15 6 0 10 7 10 15 0 8 -2 15 -4 15 -2 0
-6 -7 -10 -15z"/>
<path d="M2115 2881 c-3 -5 -1 -12 4 -15 5 -3 11 1 15 9 6 16 -9 21 -19 6z"/>
<path d="M3725 6279 c85 -19 93 -20 60 -4 -16 8 -46 14 -65 14 l-35 -1 40 -9z"/>
<path d="M3820 6256 c0 -2 7 -7 16 -10 8 -3 12 -2 9 4 -6 10 -25 14 -25 6z"/>
<path d="M1778 6214 c-38 -20 -36 -28 2 -9 17 9 30 18 30 20 0 7 -1 6 -32 -11z"/>
<path d="M2305 6200 c10 -11 20 -20 23 -20 3 0 -3 9 -13 20 -10 11 -20 20 -23
20 -3 0 3 -9 13 -20z"/>
<path d="M1714 6174 c-18 -14 -18 -15 4 -4 12 6 22 13 22 15 0 8 -5 6 -26 -11z"/>
<path d="M1568 6088 c-20 -11 -41 -31 -47 -44 -6 -13 -19 -24 -28 -25 -10 0
-43 -9 -73 -19 -30 -11 -42 -17 -27 -14 230 42 256 43 312 20 57 -24 54 -11
-7 23 -36 21 -66 31 -95 31 -24 0 -43 5 -43 10 0 6 6 10 14 10 7 0 19 7 26 15
16 20 12 19 -32 -7z"/>
<path d="M1960 5851 c52 -44 75 -60 79 -55 5 5 -24 28 -73 57 l-31 19 25 -21z"/>
<path d="M1658 5806 c-96 -50 -206 -175 -233 -266 -8 -25 -7 -24 22 5 16 17
57 62 90 101 75 89 100 114 114 114 5 0 7 5 4 10 -3 6 0 13 9 16 8 3 17 12 20
20 7 17 7 17 -26 0z"/>
<path d="M2350 5455 c-11 -13 -10 -14 4 -9 9 3 16 10 16 15 0 13 -6 11 -20 -6z"/>
<path d="M2366 5423 c-6 -14 -5 -15 5 -6 7 7 10 15 7 18 -3 3 -9 -2 -12 -12z"/>
<path d="M3001 5064 c0 -11 3 -14 6 -6 3 7 2 16 -1 19 -3 4 -6 -2 -5 -13z"/>
<path d="M2835 5009 c-4 -6 -5 -12 -2 -15 2 -3 7 2 10 11 7 17 1 20 -8 4z"/>
<path d="M2992 4960 c0 -14 2 -19 5 -12 2 6 2 18 0 25 -3 6 -5 1 -5 -13z"/>
<path d="M3036 4778 c-26 -231 -32 -348 -16 -332 5 5 14 72 20 149 5 77 12
159 14 183 2 23 0 42 -5 42 -4 0 -10 -19 -13 -42z"/>
<path d="M3622 4780 c0 -19 2 -27 5 -17 2 9 2 25 0 35 -3 9 -5 1 -5 -18z"/>
<path d="M3760 4685 c-7 -191 -8 -261 -1 -270 3 -5 8 26 11 69 l5 79 20 -59
c15 -47 89 -215 102 -233 2 -2 5 -2 8 1 3 3 -12 50 -34 104 -42 104 -83 241
-99 334 l-9 55 -3 -80z"/>
<path d="M3610 4713 c0 -18 2 -33 4 -33 9 0 13 39 5 51 -6 10 -9 4 -9 -18z"/>
<path d="M3623 4575 c0 -38 2 -53 4 -32 2 20 2 52 0 70 -2 17 -4 1 -4 -38z"/>
<path d="M4275 4570 c8 -96 13 -120 25 -120 14 0 12 27 -5 111 -21 97 -28 100
-20 9z"/>
<path d="M2412 4580 c0 -14 2 -19 5 -12 2 6 2 18 0 25 -3 6 -5 1 -5 -13z"/>
<path d="M2451 4559 c-7 -22 -11 -43 -8 -45 2 -2 9 14 16 37 7 22 11 43 8 45
-2 2 -9 -14 -16 -37z"/>
<path d="M2403 4505 c0 -22 2 -30 4 -17 2 12 2 30 0 40 -3 9 -5 -1 -4 -23z"/>
<path d="M1841 4503 c-1 -6 -4 -20 -7 -30 -5 -17 -5 -17 6 0 6 10 9 23 6 30
-3 9 -5 9 -5 0z"/>
<path d="M2419 4448 c-12 -51 -13 -52 -20 -23 -4 19 -7 -2 -8 -59 -1 -96 4
-110 13 -33 3 26 13 73 22 103 9 31 14 58 11 60 -3 3 -11 -19 -18 -48z"/>
<path d="M3632 4455 c0 -22 6 -71 13 -110 l14 -70 -5 60 c-3 33 -9 83 -14 110
-7 49 -7 49 -8 10z"/>
<path d="M3992 4455 c0 -16 2 -22 5 -12 2 9 2 23 0 30 -3 6 -5 -1 -5 -18z"/>
<path d="M3412 4450 c0 -14 2 -19 5 -12 2 6 2 18 0 25 -3 6 -5 1 -5 -13z"/>
<path d="M3012 4375 c0 -16 2 -22 5 -12 2 9 2 23 0 30 -3 6 -5 -1 -5 -18z"/>
<path d="M3403 4355 c0 -22 2 -30 4 -17 2 12 2 30 0 40 -3 9 -5 -1 -4 -23z"/>
<path d="M3456 4267 c-11 -113 -2 -258 19 -325 21 -67 31 -61 15 10 -7 29 -16
132 -19 228 -6 175 -6 175 -15 87z"/>
<path d="M2995 4263 c-18 -195 -11 -456 15 -559 7 -31 9 -21 5 51 -4 85 -4 88
10 60 l15 -30 -5 30 c-2 17 -10 62 -16 100 -6 39 -12 150 -12 248 -1 97 -2
177 -3 177 -1 0 -5 -35 -9 -77z"/>
<path d="M2136 4285 c-13 -25 -21 -43 -15 -40 10 7 52 85 45 85 -2 0 -16 -20
-30 -45z"/>
<path d="M2174 4254 c-41 -83 -86 -127 -179 -180 -30 -17 -52 -34 -48 -38 4
-3 -8 -12 -25 -18 -27 -10 -44 -28 -27 -28 13 0 95 37 129 58 22 13 44 25 50
27 33 7 49 22 73 69 28 54 74 178 69 184 -2 1 -21 -32 -42 -74z"/>
<path d="M2381 4254 c0 -11 3 -14 6 -6 3 7 2 16 -1 19 -3 4 -6 -2 -5 -13z"/>
<path d="M3393 4225 c0 -27 2 -38 4 -22 2 15 2 37 0 50 -2 12 -4 0 -4 -28z"/>
<path d="M3661 4254 c0 -11 3 -14 6 -6 3 7 2 16 -1 19 -3 4 -6 -2 -5 -13z"/>
<path d="M4231 4254 c0 -11 3 -14 6 -6 3 7 2 16 -1 19 -3 4 -6 -2 -5 -13z"/>
<path d="M2089 4213 c-13 -16 -12 -17 4 -4 9 7 17 15 17 17 0 8 -8 3 -21 -13z"/>
<path d="M2276 4203 c-6 -14 -5 -15 5 -6 7 7 10 15 7 18 -3 3 -9 -2 -12 -12z"/>
<path d="M2291 4152 c-14 -32 -36 -74 -49 -94 -15 -23 -22 -44 -18 -55 5 -13
13 -5 32 32 29 58 69 164 63 169 -2 2 -15 -21 -28 -52z"/>
<path d="M2034 4148 l-19 -23 23 19 c21 18 27 26 19 26 -2 0 -12 -10 -23 -22z"/>
<path d="M2255 4159 c-4 -6 -5 -12 -2 -15 2 -3 7 2 10 11 7 17 1 20 -8 4z"/>
<path d="M3382 4110 c0 -19 2 -27 5 -17 2 9 2 25 0 35 -3 9 -5 1 -5 -18z"/>
<path d="M4571 4084 c0 -11 3 -14 6 -6 3 7 2 16 -1 19 -3 4 -6 -2 -5 -13z"/>
<path d="M4561 4044 c0 -11 3 -14 6 -6 3 7 2 16 -1 19 -3 4 -6 -2 -5 -13z"/>
<path d="M1895 4034 c-6 -2 -37 -8 -70 -14 l-60 -9 61 4 c53 4 134 24 94 24
-8 -1 -20 -3 -25 -5z"/>
<path d="M2365 3937 c3 -53 1 -98 -4 -101 -9 -6 -25 29 -35 77 -7 31 -26 37
-26 8 0 -11 -3 -26 -6 -35 -4 -10 -1 -16 9 -16 9 0 18 -4 21 -9 8 -12 -19 -73
-28 -64 -4 4 -5 -49 -3 -118 5 -136 22 -197 57 -206 11 -3 19 -12 18 -20 -2
-9 6 -20 17 -27 11 -6 24 -16 30 -23 19 -21 80 -53 103 -53 21 0 22 2 9 15
-19 18 -31 85 -18 98 5 5 35 9 66 9 45 0 62 -5 81 -23 14 -13 23 -28 20 -34
-2 -7 0 -18 4 -26 7 -11 15 -8 40 16 50 48 83 111 86 167 1 27 5 52 9 56 3 4
-8 11 -26 17 -47 16 -49 35 -3 35 l37 0 -6 57 c-5 43 -12 62 -29 75 l-23 18
26 -9 c31 -11 39 -6 39 25 0 18 -11 29 -42 45 -39 20 -41 22 -23 35 27 20 11
29 -18 9 -23 -15 -29 -14 -100 10 -42 14 -93 25 -114 25 -48 0 -131 25 -154
46 -17 15 -18 11 -14 -79z m50 33 c3 -5 -3 -10 -14 -10 -12 0 -21 5 -21 10 0
6 6 10 14 10 8 0 18 -4 21 -10z m72 -96 c-3 -3 -12 -4 -19 -1 -8 3 -5 6 6 6
11 1 17 -2 13 -5z m151 -92 c4 -13 -37 -33 -51 -25 -11 7 24 44 37 40 5 -2 12
-9 14 -15z m-198 -42 c0 -5 -7 -10 -15 -10 -8 0 -15 5 -15 10 0 6 7 10 15 10
8 0 15 -4 15 -10z m230 -169 c0 -14 -18 -23 -30 -16 -6 4 -8 11 -5 16 8 12 35
12 35 0z m73 -45 c6 -15 -1 -26 -15 -26 -4 0 -8 9 -8 20 0 23 15 27 23 6z"/>
<path d="M2206 3952 c-3 -5 1 -9 9 -9 8 0 12 4 9 9 -3 4 -7 8 -9 8 -2 0 -6 -4
-9 -8z"/>
<path d="M2900 3951 c0 -5 7 -14 15 -21 12 -10 15 -10 15 3 0 8 -7 17 -15 21
-8 3 -15 2 -15 -3z"/>
<path d="M4494 3898 c-9 -18 -27 -46 -39 -63 -28 -37 -38 -55 -31 -55 7 0 71
93 84 123 16 38 6 34 -14 -5z"/>
<path d="M3960 3899 c0 -5 5 -7 10 -4 6 3 10 8 10 11 0 2 -4 4 -10 4 -5 0 -10
-5 -10 -11z"/>
<path d="M4125 3890 c-3 -5 -1 -10 4 -10 6 0 11 5 11 10 0 6 -2 10 -4 10 -3 0
-8 -4 -11 -10z"/>
<path d="M4170 3880 c0 -5 5 -10 10 -10 6 0 10 5 10 10 0 6 -4 10 -10 10 -5 0
-10 -4 -10 -10z"/>
<path d="M3902 3829 c2 -8 10 -19 18 -26 13 -11 13 -14 0 -23 -8 -5 -22 -10
-31 -10 -9 0 -33 -13 -54 -30 -21 -16 -42 -30 -47 -30 -5 0 -6 -5 -3 -10 4 -6
16 -8 27 -4 14 4 18 2 14 -5 -4 -6 -3 -11 3 -11 5 0 13 5 16 10 3 6 11 10 17
10 7 0 6 -5 -2 -15 -14 -17 -42 -106 -35 -113 8 -9 46 31 73 76 19 33 22 46
13 52 -9 5 -6 9 8 13 13 3 21 13 21 26 0 12 4 21 8 21 5 0 8 15 8 34 -1 23 -5
32 -14 29 -7 -3 -19 1 -28 8 -12 10 -15 10 -12 -2z"/>
<path d="M4041 3818 c-6 -13 -20 -36 -30 -53 -11 -16 -20 -38 -20 -48 -1 -27
-104 -137 -153 -163 -32 -16 -45 -75 -33 -150 9 -63 14 -74 34 -74 25 0 32
-10 20 -31 -7 -15 -6 -21 6 -25 8 -3 15 -12 15 -18 0 -16 42 -56 58 -56 17 0
15 15 -4 30 -10 9 -14 26 -12 49 l3 36 58 0 c49 0 61 -4 82 -27 26 -29 33 -62
14 -74 -8 -5 -7 -9 4 -15 17 -10 61 3 71 20 4 6 12 8 19 5 8 -3 34 14 59 36
36 32 51 54 68 104 25 75 22 110 -8 132 -32 22 -27 34 13 34 l35 0 1 53 c1 28
1 56 0 60 -3 17 35 -13 49 -37 7 -14 20 -26 29 -26 23 0 73 -48 95 -91 l19
-36 -27 -29 c-38 -41 -48 -61 -30 -61 7 0 14 4 14 8 0 5 6 6 14 3 20 -8 62 58
77 121 7 28 20 58 28 68 14 17 14 20 -4 33 -10 8 -26 14 -34 14 -22 1 -81 30
-116 58 -21 16 -25 26 -17 34 8 8 19 4 42 -16 17 -14 37 -26 43 -26 7 1 -6 16
-27 34 -38 33 -38 34 -22 57 9 13 16 30 16 39 0 8 -9 0 -20 -18 -15 -25 -26
-32 -43 -30 -13 2 -21 9 -19 17 3 12 1 12 -13 1 -9 -7 -14 -18 -12 -24 3 -6
-5 -11 -17 -12 -11 0 -29 -4 -38 -8 -14 -6 -18 -3 -18 14 0 13 -8 24 -20 27
-28 7 -25 23 4 23 15 0 26 7 29 19 4 17 2 17 -46 3 -40 -12 -61 -12 -97 -4
-53 13 -98 13 -106 1 -12 -19 -26 -8 -20 16 8 31 3 32 -13 3z m65 -170 c9 -14
-27 -41 -38 -30 -12 12 1 42 17 42 8 0 17 -5 21 -12z m-122 -46 c2 -4 -2 -15
-9 -25 -12 -16 -13 -16 -18 2 -7 26 14 44 27 23z m106 -181 c0 -12 -20 -25
-27 -18 -7 7 6 27 18 27 5 0 9 -4 9 -9z"/>
<path d="M2850 3820 c0 -5 5 -10 11 -10 5 0 7 5 4 10 -3 6 -8 10 -11 10 -2 0
-4 -4 -4 -10z"/>
<path d="M1768 3543 c-20 -22 -38 -87 -38 -135 0 -37 17 -95 25 -86 3 2 0 18
-7 34 -9 25 -7 41 14 99 14 39 28 78 33 88 4 9 3 17 -2 17 -6 0 -17 -8 -25
-17z"/>
<path d="M1860 3396 c-6 -8 -10 -25 -8 -38 3 -22 4 -22 18 6 20 39 34 42 48
11 7 -15 16 -24 22 -20 5 3 7 -3 5 -15 -2 -11 0 -22 6 -25 5 -4 9 7 9 23 0 21
-6 31 -20 35 -11 3 -20 12 -20 21 0 20 -43 21 -60 2z"/>
<path d="M1935 3390 c3 -5 8 -10 11 -10 2 0 4 5 4 10 0 6 -5 10 -11 10 -5 0
-7 -4 -4 -10z"/>
<path d="M2645 3360 c-3 -5 -2 -10 4 -10 5 0 13 5 16 10 3 6 2 10 -4 10 -5 0
-13 -4 -16 -10z"/>
<path d="M4768 3275 c-9 -27 -15 -51 -13 -54 8 -7 36 70 33 87 -2 10 -11 -5
-20 -33z"/>
<path d="M4672 3085 c-42 -58 -118 -114 -225 -168 -60 -31 -83 -47 -76 -54 7
-7 32 1 82 29 40 21 76 43 82 49 15 15 27 10 21 -9 -5 -15 -1 -17 29 -14 22 3
40 12 46 24 7 13 17 17 32 13 19 -5 20 -4 5 5 -11 7 -24 7 -35 2 -10 -5 -28
-6 -41 -3 l-24 6 26 23 c15 12 30 22 35 22 8 0 64 71 85 108 18 30 -12 7 -42
-33z"/>
<path d="M4425 3089 c-11 -17 1 -21 15 -4 8 9 8 15 2 15 -6 0 -14 -5 -17 -11z"/>
<path d="M4379 3043 c-13 -16 -12 -17 4 -4 16 13 21 21 13 21 -2 0 -10 -8 -17
-17z"/>
<path d="M4797 3053 c-4 -3 -7 -13 -7 -21 0 -19 -112 -297 -140 -347 -28 -52
-40 -64 -33 -34 5 19 -4 13 -48 -29 -64 -64 -97 -82 -164 -93 l-50 -8 47 2
c54 2 52 -3 -14 -27 -27 -10 -48 -22 -48 -27 0 -17 49 -9 115 17 95 38 185
124 234 225 21 43 40 76 43 74 3 -3 8 15 11 40 4 25 20 87 37 137 28 87 32
106 17 91z"/>
<path d="M1202 3028 c-14 -14 -16 -28 -3 -28 9 0 24 30 18 36 -2 2 -9 -2 -15
-8z"/>
<path d="M4660 2845 c-21 -12 -22 -14 -6 -15 12 0 16 -5 12 -16 -3 -8 -2 -13
3 -10 6 4 23 58 17 56 0 -1 -12 -7 -26 -15z"/>
<path d="M4564 2819 c-3 -5 -3 -17 0 -27 3 -9 6 -43 7 -75 1 -32 6 -60 10 -63
10 -6 23 81 15 101 -4 10 5 22 25 34 23 14 27 21 17 27 -18 12 -67 14 -74 3z"/>
<path d="M4095 2800 c-133 -5 -140 -6 -150 -27 -5 -13 -25 -29 -45 -37 -41
-17 -77 -42 -70 -49 3 -3 46 6 95 19 50 13 121 27 160 31 38 3 76 12 83 20 20
19 25 17 64 -26 26 -30 38 -37 47 -28 13 13 15 34 2 39 -5 2 -17 17 -27 33
l-19 30 -140 -5z"/>
<path d="M4307 2712 c-50 -55 -95 -190 -68 -206 5 -4 7 2 4 12 -8 31 12 87 29
84 16 -2 34 32 48 92 9 41 9 42 -13 18z"/>
<path d="M4290 2561 c0 -6 5 -13 10 -16 6 -3 10 1 10 9 0 9 -4 16 -10 16 -5 0
-10 -4 -10 -9z"/>
<path d="M4080 2545 c-6 -7 -13 -30 -15 -51 -4 -29 0 -46 20 -76 14 -21 31
-38 38 -38 9 0 8 -3 -2 -9 -11 -7 -10 -13 4 -35 20 -31 40 -33 54 -7 6 10 26
22 46 25 40 8 38 6 25 40 -5 14 -17 26 -27 26 -13 0 -15 2 -5 9 10 6 10 10 -3
21 -8 7 -15 20 -15 29 0 10 -9 27 -20 39 -24 26 -32 28 -24 7 4 -10 0 -15 -15
-15 -23 0 -27 10 -10 27 7 7 3 12 -15 15 -14 3 -31 0 -36 -7z"/>
<path d="M3932 2528 c8 -7 26 -32 39 -56 20 -37 21 -45 9 -53 -11 -7 -8 -8 10
-5 14 3 30 5 35 6 6 0 3 6 -5 13 -8 7 -25 33 -37 60 -17 35 -28 47 -45 47 -19
0 -20 -2 -6 -12z"/>
<path d="M4305 2511 c-3 -5 -1 -12 5 -16 5 -3 10 1 10 9 0 18 -6 21 -15 7z"/>
<path d="M4713 2455 c0 -33 2 -45 4 -27 2 18 2 45 0 60 -2 15 -4 0 -4 -33z"/>
<path d="M3655 2479 c-4 -6 -5 -12 -2 -15 2 -3 7 2 10 11 7 17 1 20 -8 4z"/>
<path d="M4040 2429 c0 -5 5 -7 10 -4 6 3 10 8 10 11 0 2 -4 4 -10 4 -5 0 -10
-5 -10 -11z"/>
<path d="M4561 2363 c-6 -38 -16 -104 -21 -148 -14 -119 -39 -261 -50 -287 -8
-18 -10 -13 -6 27 2 28 2 42 -1 32 -4 -14 -13 -17 -39 -15 -19 2 -34 8 -33 13
0 6 5 9 11 7 5 -1 7 2 4 7 -4 5 -2 12 3 15 5 4 13 1 16 -5 8 -12 45 23 45 43
-1 8 -7 5 -17 -7 l-16 -20 8 20 c18 44 6 359 -13 340 -10 -9 -2 -158 9 -171
16 -19 1 -74 -40 -149 -21 -38 -36 -76 -33 -84 3 -8 0 -11 -6 -7 -6 4 -28 -12
-49 -36 -21 -23 -77 -84 -125 -135 -51 -53 -90 -104 -93 -120 -4 -16 -13 -43
-21 -61 -13 -30 -12 -33 10 -53 17 -15 26 -36 31 -73 7 -53 45 -124 90 -166
l25 -24 -22 -23 c-12 -13 -17 -23 -11 -23 15 0 3 -63 -14 -77 -14 -11 -13 -26
12 -135 27 -126 35 -149 35 -109 0 13 6 46 14 74 8 29 17 93 20 144 7 95 23
150 56 186 17 18 52 68 129 187 13 19 20 27 17 18 -3 -12 0 -18 9 -18 8 0 15
-4 15 -9 0 -5 7 -17 17 -26 32 -33 183 1 183 40 0 8 -4 15 -8 15 -5 0 32 42
81 93 77 79 97 107 139 195 27 57 47 106 44 109 -3 3 -10 -7 -16 -22 -17 -44
-97 -159 -150 -214 -74 -77 -242 -148 -265 -111 -3 5 10 41 30 80 50 99 107
273 100 303 -4 13 -2 42 3 63 19 77 24 99 17 93 -3 -4 -19 -58 -34 -121 -31
-124 -113 -314 -132 -303 -6 4 -8 13 -5 21 3 8 1 13 -3 11 -10 -2 -11 2 -10
41 0 15 3 21 6 15 2 -7 9 -13 14 -13 13 0 11 28 -2 32 -7 2 -2 61 15 183 27
194 50 414 43 421 -2 2 -9 -26 -16 -63z m-97 -290 c-4 -10 -7 -29 -7 -43 1
-22 0 -22 -9 -6 -10 17 -12 16 -35 -10 l-25 -29 23 35 c13 19 27 37 31 38 4 2
8 10 8 18 0 8 5 14 11 14 7 0 8 -7 3 -17z m193 -115 c-3 -8 -6 -5 -6 6 -1 11
2 17 5 13 3 -3 4 -12 1 -19z m-265 3 c6 9 6 5 2 -13 -4 -20 -1 -30 15 -40 25
-15 28 -43 5 -52 -8 -3 -12 -10 -9 -16 3 -5 2 -17 -3 -26 -8 -14 -11 -14 -26
7 -9 13 -16 33 -16 44 0 16 -2 17 -9 5 -6 -8 -7 -18 -5 -22 3 -4 1 -8 -5 -8
-15 0 -1 63 16 73 7 4 13 13 13 20 0 7 -4 6 -10 -3 -14 -21 -12 -3 2 23 8 15
13 18 16 8 4 -11 6 -11 14 0z m249 -48 c-12 -20 -14 -14 -5 12 4 9 9 14 11 11
3 -2 0 -13 -6 -23z m-161 -33 c0 -11 -4 -20 -10 -20 -5 0 -10 9 -10 20 0 11 5
20 10 20 6 0 10 -9 10 -20z m116 -93 c-29 -66 -71 -129 -116 -174 -57 -58 -54
-35 3 26 33 36 70 91 91 137 42 87 60 96 22 11z m-137 31 c0 -16 -2 -18 -6 -8
-3 8 -11 18 -17 22 -7 5 -4 8 7 8 11 0 17 -7 16 -22z m-151 -38 c-7 -10 -14
-18 -15 -16 -6 6 9 36 18 36 5 0 4 -9 -3 -20z m131 -13 c0 -21 -1 -21 -9 -2
-12 28 -12 37 0 30 6 -3 10 -16 9 -28z m-9 -42 c0 -5 -5 -3 -10 5 -5 8 -10 20
-10 25 0 6 5 3 10 -5 5 -8 10 -19 10 -25z m-134 -5 c15 0 19 -12 7 -23 -7 -8
-33 23 -32 38 0 6 3 4 6 -2 2 -7 11 -13 19 -13z m111 -12 c-3 -8 -6 -5 -6 6
-1 11 2 17 5 13 3 -3 4 -12 1 -19z m98 12 c3 -5 0 -22 -8 -36 -9 -17 -17 -23
-21 -15 -4 6 -2 11 4 11 6 0 8 10 4 25 -6 25 8 35 21 15z m-245 -35 c0 -2 -6
-5 -13 -8 -8 -3 -14 1 -14 8 0 7 6 11 14 8 7 -3 13 -6 13 -8z m90 -9 c0 -2 -7
-9 -15 -16 -13 -11 -14 -10 -9 4 5 14 24 23 24 12z m-80 -51 c0 -8 -2 -15 -4
-15 -2 0 -6 7 -10 15 -3 8 -1 15 4 15 6 0 10 -7 10 -15z m45 -71 c17 -6 15 -8
-14 -16 -38 -10 -57 1 -48 27 5 11 11 13 24 6 10 -5 27 -13 38 -17z m95 -18
c0 -18 -57 -121 -85 -152 -32 -36 -35 -37 -29 -13 5 23 -1 60 -22 131 -4 13 5
19 38 26 45 10 98 15 98 8z"/>
<path d="M4385 1900 c-3 -5 -1 -10 4 -10 6 0 11 5 11 10 0 6 -2 10 -4 10 -3 0
-8 -4 -11 -10z"/>
<path d="M3970 2380 c-13 -9 -13 -10 0 -10 8 0 22 5 30 10 13 9 13 10 0 10 -8
0 -22 -5 -30 -10z"/>
<path d="M3840 2335 c0 -18 -17 -20 -22 -3 -2 6 -4 -6 -4 -28 0 -21 -4 -68 -8
-103 l-9 -64 30 23 c20 14 36 40 47 72 18 57 21 92 6 83 -5 -3 -10 3 -10 14 0
12 -7 21 -15 21 -8 0 -15 -7 -15 -15z"/>
<path d="M5091 2260 c-1 -88 -33 -250 -70 -357 -18 -51 -24 -80 -15 -68 8 11
28 63 45 115 43 138 52 144 44 30 -8 -124 -21 -198 -52 -290 -28 -86 -53 -131
-97 -177 -37 -40 -67 -42 -118 -7 -42 30 -61 27 -29 -3 18 -17 20 -24 10 -51
-6 -19 -20 -34 -33 -38 -43 -10 -125 3 -176 30 -29 15 -55 25 -58 22 -3 -3 -3
-7 -1 -9 71 -57 72 -57 175 -57 74 0 109 5 139 19 38 17 175 151 175 171 0 5
5 21 12 37 13 31 15 39 17 66 0 10 5 16 10 12 13 -7 18 14 31 120 13 107 14
367 1 445 l-9 55 -1 -65z m-254 -815 c-4 -8 -11 -15 -17 -15 -6 0 -6 7 2 20
14 22 24 19 15 -5z"/>
<path d="M4701 2294 c0 -11 3 -14 6 -6 3 7 2 16 -1 19 -3 4 -6 -2 -5 -13z"/>
<path d="M3020 2255 c14 -8 30 -14 35 -14 6 0 -1 6 -15 14 -14 8 -29 14 -35
14 -5 0 1 -6 15 -14z"/>
<path d="M3320 2234 c-93 -26 -144 -29 -186 -14 -37 14 -44 4 -8 -12 46 -19
112 -13 207 16 48 15 87 30 87 32 0 6 -7 4 -100 -22z"/>
<path d="M4692 2220 c0 -14 2 -19 5 -12 2 6 2 18 0 25 -3 6 -5 1 -5 -13z"/>
<path d="M3702 2167 c-17 -47 -14 -59 4 -18 8 19 13 39 12 43 -2 5 -9 -6 -16
-25z"/>
<path d="M3631 2106 c-1 -68 1 -77 14 -66 8 7 12 17 7 24 -4 6 -10 36 -13 66
-6 53 -6 52 -8 -24z"/>
<path d="M3510 2025 c0 -8 4 -15 9 -15 12 0 19 -42 11 -65 -4 -12 -24 -24 -51
-32 l-44 -13 40 5 c29 3 47 13 68 37 22 25 30 29 37 18 4 -7 6 -20 3 -29 -5
-12 -3 -13 6 -5 10 9 10 17 1 34 -9 16 -9 25 -1 33 6 6 11 16 11 21 0 6 -4 6
-11 -1 -13 -13 -46 -6 -53 13 -7 19 -26 18 -26 -1z"/>
<path d="M4976 1985 c-9 -26 -7 -32 5 -12 6 10 9 21 6 23 -2 3 -7 -2 -11 -11z"/>
<path d="M2831 1970 c0 -8 4 -22 9 -30 12 -18 12 -2 0 25 -6 13 -9 15 -9 5z"/>
<path d="M1020 1944 c0 -3 4 -13 9 -22 4 -9 11 -36 15 -58 l6 -41 -57 -7 c-51
-6 -63 -3 -128 28 -106 51 -163 62 -96 19 33 -21 122 -95 169 -140 52 -50 103
-88 150 -112 24 -12 51 -35 60 -51 9 -16 25 -31 34 -34 10 -2 18 -10 18 -16 0
-9 -10 -10 -37 -4 -21 4 -56 8 -78 8 -39 1 -41 0 -70 -59 -30 -60 -30 -60 -29
-230 1 -181 16 -288 58 -419 13 -39 28 -118 35 -176 7 -58 16 -126 20 -152 7
-43 6 -47 -17 -59 -23 -13 -27 -11 -54 21 -90 106 -105 193 -72 423 12 87 13
118 3 165 -12 59 -46 140 -76 181 l-18 24 48 -5 c26 -3 47 -2 47 3 0 5 -8 9
-17 10 -10 0 -40 3 -68 5 -40 4 -52 1 -63 -13 -12 -15 -13 -3 -6 82 5 55 7
132 7 170 -2 80 -42 261 -75 336 -12 28 -21 57 -21 65 0 8 -10 14 -24 14 l-24
0 22 -29 c19 -25 20 -34 10 -62 -6 -17 -11 -44 -11 -59 0 -18 -16 -43 -56 -83
l-56 -56 5 -73 c7 -115 25 -207 56 -283 49 -117 90 -258 85 -290 -2 -18 -1
-24 3 -15 5 8 15 26 25 40 9 14 19 50 23 80 4 30 10 75 15 100 l7 45 2 -60 c1
-33 8 -79 16 -103 9 -24 24 -87 35 -140 40 -194 42 -201 56 -195 17 6 18 -2 4
-28 -12 -22 -65 -26 -135 -8 -68 17 -74 29 -63 133 11 117 5 143 -10 43 -16
-105 -15 -152 3 -167 9 -7 39 -18 68 -25 l52 -11 1 -44 c1 -30 -4 -52 -17 -69
-10 -13 -19 -37 -19 -52 0 -38 -11 -37 -48 5 -59 68 -97 134 -174 301 -43 93
-92 197 -108 230 -26 52 -29 55 -25 25 5 -26 4 -31 -4 -20 -13 17 -11 7 24
-175 39 -196 53 -285 64 -385 6 -52 22 -169 36 -259 28 -183 28 -181 17 -181
-11 0 -97 149 -117 203 -9 27 -18 47 -20 45 -4 -5 33 -257 40 -268 4 -6 71
-10 160 -10 l155 0 5 28 c4 15 10 35 16 44 5 10 9 28 9 42 0 13 7 29 15 36 8
7 12 16 9 21 -2 5 4 16 16 26 27 24 26 59 -2 66 -26 7 -18 19 15 23 12 2 36 6
52 9 54 11 206 -84 280 -175 56 -69 67 -90 55 -105 -15 -18 1 -20 18 -3 10 10
15 10 23 -2 19 -28 0 25 -36 98 -33 69 -59 146 -90 275 -21 84 -9 105 26 50
34 -52 45 -82 69 -198 23 -111 41 -165 71 -207 20 -27 22 -28 120 -28 54 0 99
2 99 5 0 2 -13 26 -30 52 -16 26 -30 53 -30 60 0 19 -8 16 -33 -13 l-23 -26
-38 81 c-37 78 -67 121 -46 66 15 -39 11 -44 -7 -10 -10 17 -16 36 -14 43 2
14 -42 82 -109 167 -22 28 -54 77 -72 110 l-32 60 -3 365 c-2 299 -5 380 -19
448 -9 45 -14 85 -11 88 3 3 28 0 55 -6 l49 -13 9 -61 9 -61 40 -5 c31 -4 41
-10 46 -30 5 -16 7 -1 8 43 1 83 -15 96 -58 48 l-28 -31 -7 46 c-3 26 -6 134
-6 240 0 123 -4 195 -10 199 -6 4 -20 -5 -31 -19 -27 -34 -46 -24 -96 49 -34
48 -53 66 -53 49z m-261 -229 c0 -5 -4 -3 -9 5 -5 8 -9 22 -9 30 0 16 17 -16
18 -35z m306 -215 c3 -5 1 -10 -4 -10 -6 0 -11 5 -11 10 0 6 2 10 4 10 3 0 8
-4 11 -10z m-151 -431 c-3 -5 -10 -7 -15 -3 -5 3 -7 10 -3 15 3 5 10 7 15 3 5
-3 7 -10 3 -15z"/>
<path d="M4002 1915 c-17 -37 -14 -45 4 -12 9 16 14 31 11 33 -2 2 -9 -7 -15
-21z"/>
<path d="M5200 1813 c-14 -83 -52 -209 -81 -266 -23 -45 -148 -173 -191 -196
-34 -18 -44 -41 -18 -41 11 0 42 10 68 22 l47 23 -30 6 c-29 6 -29 7 7 8 37 1
88 36 88 60 0 6 5 11 10 11 6 0 10 -9 10 -20 0 -23 9 -25 45 -8 28 13 36 58
10 58 -8 0 -15 5 -15 11 0 6 6 9 14 6 16 -7 23 18 21 84 0 40 1 44 13 30 11
-14 13 -9 9 32 -3 26 -1 47 3 47 4 0 8 45 7 100 0 55 -1 100 -3 100 -1 0 -7
-30 -14 -67z m-60 -358 c11 -13 10 -14 -4 -9 -9 3 -16 10 -16 15 0 13 6 11 20
-6z"/>
<path d="M595 1818 c-19 -29 -35 -57 -35 -63 0 -9 18 16 65 88 32 50 6 28 -30
-25z"/>
<path d="M3940 1795 c-7 -14 -17 -25 -22 -25 -4 0 -8 -6 -8 -12 1 -15 50 38
50 53 0 15 -6 10 -20 -16z"/>
<path d="M2871 1768 c-11 -18 -9 -25 26 -62 22 -22 56 -59 76 -81 42 -46 58
-45 19 2 -15 17 -37 44 -49 60 -12 15 -31 38 -42 50 -11 12 -16 23 -11 25 5 2
6 8 2 15 -6 9 -11 6 -21 -9z"/>
<path d="M523 1530 c0 -47 2 -66 4 -42 2 23 2 61 0 85 -2 23 -4 4 -4 -43z"/>
<path d="M3537 1596 c-6 -15 0 -49 13 -81 17 -38 40 -129 40 -157 0 -18 4 -26
13 -22 7 2 26 -7 42 -20 16 -14 53 -35 82 -47 l52 -21 67 31 c37 17 68 30 68
29 1 -2 6 -16 12 -33 8 -27 14 -30 54 -33 25 -1 59 -4 75 -5 l30 -2 3 77 c3
73 2 77 -20 80 -17 2 -22 8 -20 26 3 17 -2 22 -18 22 -12 0 -18 4 -15 10 4 6
1 27 -5 46 -10 29 -10 38 1 44 45 29 -103 69 -175 48 -23 -6 -43 -13 -45 -14
-1 -2 7 -21 19 -43 13 -21 20 -47 17 -55 -9 -23 -50 -36 -113 -36 -49 0 -58 4
-83 31 -16 17 -41 55 -56 85 -15 30 -29 54 -30 54 -2 0 -5 -6 -8 -14z"/>
<path d="M4720 1525 c0 -19 11 -19 36 0 18 14 18 14 -8 15 -18 0 -28 -5 -28
-15z"/>
<path d="M4902 1404 c-12 -8 -53 -21 -90 -29 -47 -9 -57 -13 -34 -14 30 -1 33
-4 27 -23 -5 -19 -3 -19 10 4 8 14 27 29 42 33 16 3 39 14 53 25 30 23 24 27
-8 4z"/>
<path d="M3220 1354 c18 -25 34 -43 37 -40 5 5 -54 86 -63 86 -3 0 9 -21 26
-46z"/>
<path d="M5143 1384 c-30 -13 -33 -18 -33 -57 0 -24 2 -46 5 -49 3 -3 18 6 33
21 16 14 46 36 67 49 22 13 32 21 23 18 -11 -3 -22 2 -28 14 -12 23 -23 24
-67 4z"/>
<path d="M5380 1379 c0 -5 9 -9 20 -9 11 0 20 2 20 4 0 2 -9 6 -20 9 -11 3
-20 1 -20 -4z"/>
<path d="M5715 1328 c-55 -63 -99 -151 -120 -239 -16 -67 -21 -250 -7 -233 10
11 26 87 42 197 7 43 18 94 26 112 17 42 17 48 2 39 -14 -9 34 76 71 125 14
18 34 37 45 41 16 7 17 9 4 9 -9 1 -37 -23 -63 -51z"/>
<path d="M551 1360 c0 -8 4 -22 9 -30 12 -18 12 -2 0 25 -6 13 -9 15 -9 5z"/>
<path d="M3090 1310 c-8 -5 -12 -12 -9 -15 4 -3 12 1 19 10 14 17 11 19 -10 5z"/>
<path d="M3270 1301 c0 -6 4 -13 10 -16 6 -3 7 1 4 9 -7 18 -14 21 -14 7z"/>
<path d="M3558 1237 c-41 -115 -41 -114 -24 -87 18 30 60 150 54 155 -2 3 -16
-28 -30 -68z"/>
<path d="M648 1115 c14 -30 27 -53 29 -51 6 5 -40 106 -48 106 -4 0 5 -25 19
-55z"/>
<path d="M470 1148 c-71 -17 -33 -19 45 -4 46 9 58 14 35 14 -19 0 -55 -5 -80
-10z"/>
<path d="M398 1123 c7 -3 16 -2 19 1 4 3 -2 6 -13 5 -11 0 -14 -3 -6 -6z"/>
<path d="M5275 1118 c-2 -7 -11 -35 -21 -63 -14 -42 -17 -85 -15 -255 1 -113
6 -209 10 -213 17 -17 39 73 56 225 18 158 14 288 -7 288 -6 0 -8 7 -4 15 3 8
1 15 -5 15 -5 0 -11 -6 -14 -12z"/>
<path d="M5007 1099 c-3 -12 -4 -34 -1 -48 5 -24 9 -26 40 -23 l35 4 -26 33
c-14 19 -25 38 -25 44 0 20 -18 11 -23 -10z"/>
<path d="M6100 1040 c0 -39 216 -403 281 -474 23 -25 5 6 -31 55 -23 29 -43
64 -46 76 -4 13 -12 23 -18 23 -7 0 -13 6 -13 13 0 6 -27 59 -60 117 -33 58
-72 127 -87 155 -14 27 -26 43 -26 35z"/>
<path d="M1231 1018 c-13 -35 -23 -84 -17 -77 8 8 35 99 30 99 -3 0 -8 -10
-13 -22z"/>
<path d="M4731 1024 c0 -11 3 -14 6 -6 3 7 2 16 -1 19 -3 4 -6 -2 -5 -13z"/>
<path d="M4718 977 c-3 -19 -2 -25 4 -19 6 6 8 18 6 28 -3 14 -5 12 -10 -9z"/>
<path d="M3677 976 c-4 -10 -7 -39 -7 -64 0 -26 -6 -58 -13 -72 -10 -19 -10
-33 -1 -59 11 -35 11 -35 24 -12 16 31 27 16 33 -44 7 -68 24 -138 26 -105 1
35 -38 324 -47 351 -8 20 -9 20 -15 5z"/>
<path d="M1260 868 c-22 -23 -40 -48 -40 -55 0 -8 -4 -11 -10 -8 -16 10 -11
-31 5 -45 8 -7 15 -18 15 -25 0 -14 22 -25 51 -25 14 0 19 -7 19 -30 0 -16 8
-53 19 -82 10 -29 24 -80 31 -113 17 -84 45 -139 101 -199 58 -61 66 -46 9 19
-22 25 -44 64 -50 88 -6 23 -16 56 -21 72 -12 34 -32 231 -31 288 1 20 2 49 3
65 0 15 -3 42 -6 60 -10 47 -45 43 -95 -10z"/>
<path d="M1831 895 c0 -11 4 -29 9 -40 l9 -20 0 20 c0 11 -4 29 -9 40 l-9 20
0 -20z"/>
<path d="M3405 900 c-3 -5 -1 -10 4 -10 6 0 11 5 11 10 0 6 -2 10 -4 10 -3 0
-8 -4 -11 -10z"/>
<path d="M1400 889 c25 -4 65 -7 90 -7 37 0 40 1 20 8 -14 4 -54 8 -90 8 -64
0 -64 -1 -20 -9z"/>
<path d="M3345 870 c-16 -11 -26 -20 -22 -20 11 0 67 29 67 35 0 10 -16 4 -45
-15z"/>
<path d="M3287 869 c7 -7 15 -10 18 -7 3 3 -2 9 -12 12 -14 6 -15 5 -6 -5z"/>
<path d="M5832 850 c0 -14 2 -19 5 -12 2 6 2 18 0 25 -3 6 -5 1 -5 -13z"/>
<path d="M1854 804 c4 -9 11 -36 17 -60 6 -24 16 -44 21 -44 6 0 7 8 3 18 -4
9 -14 36 -22 60 -8 23 -17 42 -20 42 -3 0 -2 -7 1 -16z"/>
<path d="M2792 780 c0 -14 2 -19 5 -12 2 6 2 18 0 25 -3 6 -5 1 -5 -13z"/>
<path d="M5360 749 c0 -31 4 -48 10 -44 6 3 10 26 10 51 0 24 -4 44 -10 44 -5
0 -10 -23 -10 -51z"/>
<path d="M5800 780 c36 -11 112 -11 85 0 -11 5 -40 8 -65 8 -37 0 -41 -1 -20
-8z"/>
<path d="M3485 762 c-16 -11 -41 -47 -27 -38 6 4 12 2 12 -3 0 -6 -10 -10 -22
-8 -16 1 -27 -7 -40 -33 -23 -47 -22 -86 3 -122 26 -35 39 -24 39 33 0 34 25
102 53 141 13 19 -1 42 -18 30z"/>
<path d="M5437 743 c-4 -3 -7 -11 -7 -17 0 -6 5 -5 12 2 6 6 9 14 7 17 -3 3
-9 2 -12 -2z"/>
<path d="M3643 723 c-3 -10 -13 -26 -22 -36 -13 -16 -13 -19 -1 -27 29 -18 37
-10 38 35 1 47 -4 57 -15 28z"/>
<path d="M4975 661 c-11 -51 4 -100 36 -116 34 -18 43 -19 32 -2 -4 6 -6 21
-5 33 4 31 -15 74 -34 74 -10 0 -14 5 -11 15 4 8 2 17 -3 20 -4 3 -11 -8 -15
-24z"/>
<path d="M3536 585 c-23 -28 -46 -45 -59 -45 -18 0 -19 -2 -7 -11 11 -8 12
-12 3 -16 -7 -2 -13 -11 -13 -20 0 -22 64 -133 75 -130 6 2 24 29 40 60 17 31
32 57 35 57 5 0 107 -64 115 -72 2 -2 -3 -30 -11 -63 -25 -106 -13 -154 16
-66 17 51 28 52 33 4 3 -21 3 5 1 57 -7 170 -24 288 -24 167 0 -31 -4 -57 -10
-57 -5 0 -10 5 -10 11 0 5 -4 7 -10 4 -5 -3 -10 -1 -10 4 0 6 -8 11 -17 11
-40 1 -54 25 -47 77 6 46 4 50 -20 61 -38 17 -40 17 -80 -33z"/>
<path d="M2820 554 c0 -12 -100 -64 -122 -64 -9 0 -9 3 2 10 20 13 10 13 -27
0 -16 -6 -30 -17 -30 -24 0 -12 9 -11 51 1 28 8 70 23 93 33 23 10 44 16 47
12 10 -9 6 12 -4 28 -5 8 -10 10 -10 4z"/>
<path d="M5970 539 c0 -11 5 -17 10 -14 6 3 10 13 10 21 0 8 -4 14 -10 14 -5
0 -10 -9 -10 -21z"/>
<path d="M5953 472 c-6 -23 -7 -42 -2 -42 5 0 9 12 10 28 l1 27 8 -25 c6 -20
8 -21 8 -5 0 11 -3 29 -7 39 -6 16 -10 12 -18 -22z"/>
<path d="M2598 463 c6 -2 18 -2 25 0 6 3 1 5 -13 5 -14 0 -19 -2 -12 -5z"/>
<path d="M4425 425 c-27 -13 -43 -24 -35 -24 17 -1 100 35 100 44 0 8 -12 5
-65 -20z"/>
<path d="M2838 423 c6 -2 18 -2 25 0 6 3 1 5 -13 5 -14 0 -19 -2 -12 -5z"/>
<path d="M5938 383 c-1 -34 -3 -44 -11 -63 -10 -25 -26 -104 -22 -109 3 -2 6
2 8 10 2 8 12 39 21 69 21 68 28 120 15 120 -5 0 -10 -12 -11 -27z"/>
<path d="M5422 380 c0 -14 2 -19 5 -12 2 6 2 18 0 25 -3 6 -5 1 -5 -13z"/>
<path d="M6020 384 c0 -6 7 -19 16 -30 14 -18 14 -18 3 6 -14 31 -19 36 -19
24z"/>
<path d="M5540 370 l-65 -7 60 -1 c33 -1 67 3 75 8 8 5 11 9 5 8 -5 -1 -39 -4
-75 -8z"/>
<path d="M411 324 c0 -11 3 -14 6 -6 3 7 2 16 -1 19 -3 4 -6 -2 -5 -13z"/>
<path d="M5085 279 c-16 -10 -25 -19 -19 -19 7 0 22 9 35 20 30 24 23 24 -16
-1z"/>
<path d="M5426 292 c-3 -6 -1 -14 5 -17 15 -10 25 3 12 16 -7 7 -13 7 -17 1z"/>
<path d="M6100 280 c6 -11 13 -20 16 -20 2 0 0 9 -6 20 -6 11 -13 20 -16 20
-2 0 0 -9 6 -20z"/>
<path d="M4993 224 c-29 -19 -61 -47 -70 -61 -34 -51 -54 -133 -34 -133 5 0
17 -3 27 -7 10 -4 15 -2 11 4 -3 5 4 25 17 44 31 47 49 96 43 113 -4 9 8 26
31 45 48 40 40 38 -25 -5z"/>
<path d="M5409 234 c-12 -33 -11 -44 2 -44 5 0 8 4 4 9 -3 5 -1 12 5 16 5 3
10 -3 10 -13 0 -11 -7 -22 -15 -26 -19 -7 -20 -36 -1 -36 20 0 39 27 32 45 -3
8 -1 15 4 15 6 0 10 11 10 24 0 35 -38 42 -51 10z"/>
<path d="M5609 233 c-8 -9 -31 -24 -53 -34 -30 -13 -35 -18 -20 -22 15 -4 16
-5 2 -6 -18 -1 -17 -12 9 -96 16 -49 33 -75 50 -75 13 0 76 189 69 206 -3 8
-13 14 -22 14 -10 0 -14 5 -10 15 7 20 -8 19 -25 -2z"/>
<path d="M1482 198 c-14 -14 -16 -28 -3 -28 5 0 11 9 14 20 6 23 5 24 -11 8z"/>
<path d="M6150 152 c6 -13 14 -21 18 -18 3 4 -2 14 -12 24 -18 16 -18 16 -6
-6z"/>
<path d="M3541 129 c-6 -18 -9 -34 -7 -36 2 -2 9 10 15 28 6 18 9 34 7 36 -2
2 -9 -10 -15 -28z"/>
<path d="M3770 135 c0 -28 -16 -31 -44 -10 -22 16 -66 20 -66 6 0 -17 92 -131
106 -131 11 0 14 18 14 80 0 44 -2 80 -5 80 -3 0 -5 -11 -5 -25z m-42 -35 c23
-14 32 -27 32 -47 l0 -27 -17 23 c-10 13 -29 34 -42 47 -29 29 -17 31 27 4z"/>
<path d="M900 121 c0 -15 6 -21 21 -21 14 0 19 5 17 17 -5 26 -38 29 -38 4z"/>
<path d="M5326 108 c-8 -43 11 -65 39 -44 16 12 18 17 8 27 -10 10 -13 10 -13
1 0 -7 -4 -12 -10 -12 -5 0 -10 7 -10 15 0 8 7 15 15 15 8 0 15 7 15 15 0 8
-8 15 -19 15 -13 0 -20 -10 -25 -32z"/>
<path d="M5465 128 c-3 -8 -5 -19 -4 -24 4 -21 -2 -35 -11 -29 -5 3 -10 -3
-10 -14 0 -22 14 -28 25 -11 10 16 25 1 25 -26 0 -13 4 -24 9 -24 8 0 -14 128
-24 138 -2 3 -7 -2 -10 -10z"/>
<path d="M6187 121 c-3 -13 -1 -18 9 -14 7 2 10 11 7 19 -7 19 -10 18 -16 -5z"/>
<path d="M933 85 c-17 -12 -20 -21 -14 -41 9 -34 45 -49 66 -28 8 9 15 11 15
5 0 -17 30 -13 37 6 4 11 -4 25 -27 45 -39 32 -48 34 -77 13z"/>
<path d="M6192 85 c12 -36 44 -85 55 -85 20 0 16 12 -23 55 -19 22 -34 36 -32
30z"/>
<path d="M854 44 c6 -23 4 -26 -13 -21 -11 3 -26 -1 -32 -10 -11 -12 -5 -14
35 -12 52 3 64 16 46 48 -17 32 -44 28 -36 -5z"/>
<path d="M5365 40 c-3 -5 -1 -10 4 -10 6 0 11 5 11 10 0 6 -2 10 -4 10 -3 0
-8 -4 -11 -10z"/>
<path d="M2548 24 c-35 -19 -35 -24 0 -24 16 0 32 8 40 20 15 25 0 26 -40 4z"/>
<path d="M3530 30 c-9 -6 -10 -10 -3 -10 6 0 15 5 18 10 8 12 4 12 -15 0z"/>
<path d="M3580 24 c-17 -19 -8 -26 28 -22 l30 3 -23 17 c-20 15 -24 16 -35 2z"/>
<path d="M5020 25 c-11 -13 -10 -14 4 -9 9 3 16 10 16 15 0 13 -6 11 -20 -6z"/>
<path d="M5951 14 c0 -11 3 -14 6 -6 3 7 2 16 -1 19 -3 4 -6 -2 -5 -13z"/>
<path d="M5400 9 c0 -5 9 -9 20 -9 11 0 20 2 20 4 0 2 -9 6 -20 9 -11 3 -20 1
-20 -4z"/>
</g>
</svg>
